<svg id="visual" viewBox="0 0 1080 200" width="1080" height="200" xmlns="http://www.w3.org/2000/svg" xmlns:xlink="http://www.w3.org/1999/xlink" version="1.1"><path d="M0 58L22.5 56.8C45 55.7 90 53.3 135 51.7C180 50 225 49 270 51C315 53 360 58 405 64.7C450 71.3 495 79.7 540 85C585 90.3 630 92.7 675 84.3C720 76 765 57 810 47.7C855 38.3 900 38.7 945 40.5C990 42.3 1035 45.7 1057.5 47.3L1080 49L1080 201L1057.5 201C1035 201 990 201 945 201C900 201 855 201 810 201C765 201 720 201 675 201C630 201 585 201 540 201C495 201 450 201 405 201C360 201 315 201 270 201C225 201 180 201 135 201C90 201 45 201 22.5 201L0 201Z" fill="#c8f7ff"></path><path d="M0 105L22.5 102.7C45 100.3 90 95.7 135 89.8C180 84 225 77 270 72.3C315 67.7 360 65.3 405 66.8C450 68.3 495 73.7 540 82.3C585 91 630 103 675 102C720 101 765 87 810 82.7C855 78.3 900 83.7 945 85.8C990 88 1035 87 1057.5 86.5L1080 86L1080 201L1057.5 201C1035 201 990 201 945 201C900 201 855 201 810 201C765 201 720 201 675 201C630 201 585 201 540 201C495 201 450 201 405 201C360 201 315 201 270 201C225 201 180 201 135 201C90 201 45 201 22.5 201L0 201Z" fill="#a3ddff"></path><path d="M0 102L22.5 107.8C45 113.7 90 125.3 135 125.3C180 125.3 225 113.7 270 110.7C315 107.7 360 113.3 405 117.5C450 121.7 495 124.3 540 119.7C585 115 630 103 675 98C720 93 765 95 810 97.3C855 99.7 900 102.3 945 104C990 105.7 1035 106.3 1057.5 106.7L1080 107L1080 201L1057.5 201C1035 201 990 201 945 201C900 201 855 201 810 201C765 201 720 201 675 201C630 201 585 201 540 201C495 201 450 201 405 201C360 201 315 201 270 201C225 201 180 201 135 201C90 201 45 201 22.5 201L0 201Z" fill="#a9bbff"></path><path d="M0 137L22.5 137C45 137 90 137 135 135.8C180 134.7 225 132.3 270 136C315 139.7 360 149.3 405 152.3C450 155.3 495 151.7 540 150.5C585 149.3 630 150.7 675 147.2C720 143.7 765 135.3 810 136.3C855 137.3 900 147.7 945 152C990 156.3 1035 154.7 1057.5 153.8L1080 153L1080 201L1057.5 201C1035 201 990 201 945 201C900 201 855 201 810 201C765 201 720 201 675 201C630 201 585 201 540 201C495 201 450 201 405 201C360 201 315 201 270 201C225 201 180 201 135 201C90 201 45 201 22.5 201L0 201Z" fill="#d88be4"></path><path d="M0 181L22.5 177C45 173 90 165 135 163.2C180 161.3 225 165.7 270 169.3C315 173 360 176 405 177.3C450 178.7 495 178.3 540 178.8C585 179.3 630 180.7 675 181.3C720 182 765 182 810 178.5C855 175 900 168 945 162.5C990 157 1035 153 1057.5 151L1080 149L1080 201L1057.5 201C1035 201 990 201 945 201C900 201 855 201 810 201C765 201 720 201 675 201C630 201 585 201 540 201C495 201 450 201 405 201C360 201 315 201 270 201C225 201 180 201 135 201C90 201 45 201 22.5 201L0 201Z" fill="#ff4c94"></path></svg>